<?xml version="1.0" encoding="UTF-8" standalone="no"?>
<!DOCTYPE svg PUBLIC "-//W3C//DTD SVG 1.1//EN"
 "http://www.w3.org/Graphics/SVG/1.1/DTD/svg11.dtd">
<!-- Generated by graphviz version 11.0.0 (20240428.1522)
 -->
<!-- Title: main Pages: 1 -->
<svg width="514pt" height="436pt"
 viewBox="0.00 0.00 513.75 436.17" xmlns="http://www.w3.org/2000/svg" xmlns:xlink="http://www.w3.org/1999/xlink">
<g id="graph0" class="graph" transform="scale(1 1) rotate(0) translate(4 432.17)">
<title>main</title>
<!-- Node1 -->
<g id="Node000001" class="node">
<title>Node1</title>
<g id="a_Node000001"><a xlink:title=" ">
<polygon fill="#999999" stroke="#666666" points="37,-225.54 0,-225.54 0,-206.29 37,-206.29 37,-225.54"/>
<text text-anchor="middle" x="18.5" y="-212.04" font-family="Helvetica,sans-Serif" font-size="10.00">main</text>
</a>
</g>
</g>
<!-- Node2 -->
<g id="Node000002" class="node">
<title>Node2</title>
<g id="a_Node000002"><a target="_blank" xlink:href="http://en.cppreference.com/w/cpp/io/manip/endl.html#" xlink:title=" ">
<polygon fill="white" stroke="#666666" points="285,-387.54 231.5,-387.54 231.5,-368.29 285,-368.29 285,-387.54"/>
<text text-anchor="middle" x="258.25" y="-374.04" font-family="Helvetica,sans-Serif" font-size="10.00">std::endl</text>
</a>
</g>
</g>
<!-- Node1&#45;&gt;Node2 -->
<g id="edge1_Node000001_Node000002" class="edge">
<title>Node1&#45;&gt;Node2</title>
<g id="a_edge1_Node000001_Node000002"><a xlink:title=" ">
<path fill="none" stroke="#63b8ff" d="M24.83,-225.99C33.41,-241.53 51.51,-271.66 73,-291.91 114.17,-330.72 129.13,-336.9 181.25,-358.91 193.53,-364.1 207.54,-368.1 220.17,-371.06"/>
<polygon fill="#63b8ff" stroke="#63b8ff" points="219.28,-374.45 229.8,-373.17 220.78,-367.61 219.28,-374.45"/>
</a>
</g>
</g>
<!-- Node3 -->
<g id="Node000003" class="node">
<title>Node3</title>
<g id="a_Node000003"><a xlink:href="../../d7/d7c/classstatistics_1_1stats__computer1.html#a390697dcee210b91823ceff04b25081b" target="_top" xlink:title=" ">
<polygon fill="white" stroke="#666666" points="325.5,-350.16 191,-350.16 191,-319.66 325.5,-319.66 325.5,-350.16"/>
<text text-anchor="start" x="199" y="-336.66" font-family="Helvetica,sans-Serif" font-size="10.00">statistics::stats_computer1</text>
<text text-anchor="middle" x="258.25" y="-325.41" font-family="Helvetica,sans-Serif" font-size="10.00">::mean</text>
</a>
</g>
</g>
<!-- Node1&#45;&gt;Node3 -->
<g id="edge2_Node000001_Node000003" class="edge">
<title>Node1&#45;&gt;Node3</title>
<g id="a_edge2_Node000001_Node000003"><a xlink:title=" ">
<path fill="none" stroke="#63b8ff" d="M29.5,-225.79C39.78,-235.57 56.57,-250.56 73,-260.91 110.43,-284.49 156.63,-303.03 193.41,-315.65"/>
<polygon fill="#63b8ff" stroke="#63b8ff" points="191.98,-318.86 202.57,-318.73 194.21,-312.23 191.98,-318.86"/>
</a>
</g>
</g>
<!-- Node4 -->
<g id="Node000004" class="node">
<title>Node4</title>
<g id="a_Node000004"><a xlink:href="../../d8/dab/classstatistics_1_1stats__computer2.html#a8290966ad468f2a8c266d008bc60720e" target="_top" xlink:title=" ">
<polygon fill="white" stroke="#666666" points="325.5,-301.16 191,-301.16 191,-270.66 325.5,-270.66 325.5,-301.16"/>
<text text-anchor="start" x="199" y="-287.66" font-family="Helvetica,sans-Serif" font-size="10.00">statistics::stats_computer2</text>
<text text-anchor="middle" x="258.25" y="-276.41" font-family="Helvetica,sans-Serif" font-size="10.00">::mean</text>
</a>
</g>
</g>
<!-- Node1&#45;&gt;Node4 -->
<g id="edge3_Node000001_Node000004" class="edge">
<title>Node1&#45;&gt;Node4</title>
<g id="a_edge3_Node000001_Node000004"><a xlink:title=" ">
<path fill="none" stroke="#63b8ff" d="M37.15,-223.43C47.49,-227.68 60.86,-232.93 73,-236.91 107.76,-248.32 146.84,-259 180.04,-267.47"/>
<polygon fill="#63b8ff" stroke="#63b8ff" points="179.03,-270.83 189.59,-269.88 180.75,-264.04 179.03,-270.83"/>
</a>
</g>
</g>
<!-- Node5 -->
<g id="Node000005" class="node">
<title>Node5</title>
<g id="a_Node000005"><a xlink:href="../../d7/d7c/classstatistics_1_1stats__computer1.html#aa13bf7c38de112f71921a5525d71a2f2" target="_top" xlink:title=" ">
<polygon fill="white" stroke="#666666" points="325.5,-252.16 191,-252.16 191,-221.66 325.5,-221.66 325.5,-252.16"/>
<text text-anchor="start" x="199" y="-238.66" font-family="Helvetica,sans-Serif" font-size="10.00">statistics::stats_computer1</text>
<text text-anchor="middle" x="258.25" y="-227.41" font-family="Helvetica,sans-Serif" font-size="10.00">::new_val</text>
</a>
</g>
</g>
<!-- Node1&#45;&gt;Node5 -->
<g id="edge4_Node000001_Node000005" class="edge">
<title>Node1&#45;&gt;Node5</title>
<g id="a_edge4_Node000001_Node000005"><a xlink:title=" ">
<path fill="none" stroke="#63b8ff" d="M37.37,-217.49C67.24,-220.13 129,-225.59 179.48,-230.04"/>
<polygon fill="#63b8ff" stroke="#63b8ff" points="178.95,-233.51 189.22,-230.9 179.56,-226.54 178.95,-233.51"/>
</a>
</g>
</g>
<!-- Node6 -->
<g id="Node000006" class="node">
<title>Node6</title>
<g id="a_Node000006"><a xlink:href="../../d8/dab/classstatistics_1_1stats__computer2.html#ade6de704deea24fdc88077b3d9a0d534" target="_top" xlink:title=" ">
<polygon fill="white" stroke="#666666" points="325.5,-52.16 191,-52.16 191,-21.66 325.5,-21.66 325.5,-52.16"/>
<text text-anchor="start" x="199" y="-38.66" font-family="Helvetica,sans-Serif" font-size="10.00">statistics::stats_computer2</text>
<text text-anchor="middle" x="258.25" y="-27.41" font-family="Helvetica,sans-Serif" font-size="10.00">::new_val</text>
</a>
</g>
</g>
<!-- Node1&#45;&gt;Node6 -->
<g id="edge5_Node000001_Node000006" class="edge">
<title>Node1&#45;&gt;Node6</title>
<g id="a_edge5_Node000001_Node000006"><a xlink:title=" ">
<path fill="none" stroke="#63b8ff" d="M21.78,-205.98C27.13,-184.79 42.41,-134.76 73,-105.91 102.28,-78.31 143.63,-61.5 179.74,-51.39"/>
<polygon fill="#63b8ff" stroke="#63b8ff" points="180.53,-54.8 189.3,-48.85 178.74,-48.04 180.53,-54.8"/>
</a>
</g>
</g>
<!-- Node7 -->
<g id="Node000007" class="node">
<title>Node7</title>
<g id="a_Node000007"><a xlink:href="../../d7/d7c/classstatistics_1_1stats__computer1.html#af57e942d49f4fd70f059f224b4ac07e1" target="_top" xlink:title=" ">
<polygon fill="white" stroke="#666666" points="335.25,-165.54 181.25,-165.54 181.25,-146.29 335.25,-146.29 335.25,-165.54"/>
<text text-anchor="middle" x="258.25" y="-152.04" font-family="Helvetica,sans-Serif" font-size="10.00">statistics::stats_computer1::std</text>
</a>
</g>
</g>
<!-- Node1&#45;&gt;Node7 -->
<g id="edge6_Node000001_Node000007" class="edge">
<title>Node1&#45;&gt;Node7</title>
<g id="a_edge6_Node000001_Node000007"><a xlink:title=" ">
<path fill="none" stroke="#63b8ff" d="M29.14,-206.13C39.15,-196.64 55.73,-182.71 73,-175.91 103.26,-164 138.36,-158.37 169.74,-155.93"/>
<polygon fill="#63b8ff" stroke="#63b8ff" points="169.87,-159.43 179.61,-155.27 169.4,-152.45 169.87,-159.43"/>
</a>
</g>
</g>
<!-- Node9 -->
<g id="Node000009" class="node">
<title>Node9</title>
<g id="a_Node000009"><a xlink:href="../../d7/d7c/classstatistics_1_1stats__computer1.html#a27f0a03e2fd2254f1c81fe668226bd92" target="_top" xlink:title=" ">
<polygon fill="white" stroke="#666666" points="505.75,-209.16 371.25,-209.16 371.25,-178.66 505.75,-178.66 505.75,-209.16"/>
<text text-anchor="start" x="379.25" y="-195.66" font-family="Helvetica,sans-Serif" font-size="10.00">statistics::stats_computer1</text>
<text text-anchor="middle" x="438.5" y="-184.41" font-family="Helvetica,sans-Serif" font-size="10.00">::variance</text>
</a>
</g>
</g>
<!-- Node1&#45;&gt;Node9 -->
<g id="edge22_Node000001_Node000009" class="edge">
<title>Node1&#45;&gt;Node9</title>
<g id="a_edge22_Node000001_Node000009"><a xlink:title=" ">
<path fill="none" stroke="#63b8ff" d="M22.02,-225.94C27.83,-247.39 43.95,-298.41 73,-330.91 153.09,-420.53 232.92,-459.95 335.25,-396.91 398.63,-357.87 424.12,-266.14 433.15,-220.57"/>
<polygon fill="#63b8ff" stroke="#63b8ff" points="436.54,-221.49 434.92,-211.02 429.66,-220.22 436.54,-221.49"/>
</a>
</g>
</g>
<!-- Node10 -->
<g id="Node000010" class="node">
<title>Node10</title>
<g id="a_Node000010"><a xlink:href="../../d8/dab/classstatistics_1_1stats__computer2.html#acf2e84df4fc386bb3295016ef8fd156e" target="_top" xlink:title=" ">
<polygon fill="white" stroke="#666666" points="335.25,-89.54 181.25,-89.54 181.25,-70.29 335.25,-70.29 335.25,-89.54"/>
<text text-anchor="middle" x="258.25" y="-76.04" font-family="Helvetica,sans-Serif" font-size="10.00">statistics::stats_computer2::std</text>
</a>
</g>
</g>
<!-- Node1&#45;&gt;Node10 -->
<g id="edge9_Node000001_Node000010" class="edge">
<title>Node1&#45;&gt;Node10</title>
<g id="a_edge9_Node000001_Node000010"><a xlink:title=" ">
<path fill="none" stroke="#63b8ff" d="M26.56,-205.86C36.02,-192.91 53.86,-170.23 73,-154.91 115.78,-120.68 129.84,-114.87 181.25,-95.91 183.91,-94.93 186.64,-94.01 189.42,-93.13"/>
<polygon fill="#63b8ff" stroke="#63b8ff" points="190.19,-96.55 198.84,-90.42 188.26,-89.82 190.19,-96.55"/>
</a>
</g>
</g>
<!-- Node11 -->
<g id="Node000011" class="node">
<title>Node11</title>
<g id="a_Node000011"><a xlink:href="../../d8/dab/classstatistics_1_1stats__computer2.html#af6198817084276113b3c064e87ce0555" target="_top" xlink:title=" ">
<polygon fill="white" stroke="#666666" points="505.75,-95.16 371.25,-95.16 371.25,-64.66 505.75,-64.66 505.75,-95.16"/>
<text text-anchor="start" x="379.25" y="-81.66" font-family="Helvetica,sans-Serif" font-size="10.00">statistics::stats_computer2</text>
<text text-anchor="middle" x="438.5" y="-70.41" font-family="Helvetica,sans-Serif" font-size="10.00">::variance</text>
</a>
</g>
</g>
<!-- Node1&#45;&gt;Node11 -->
<g id="edge23_Node000001_Node000011" class="edge">
<title>Node1&#45;&gt;Node11</title>
<g id="a_edge23_Node000001_Node000011"><a xlink:title=" ">
<path fill="none" stroke="#63b8ff" d="M20.18,-206.13C22.53,-179.3 32.59,-103.66 73,-59.91 108.59,-21.39 129.9,-23.58 181.25,-12.91 248.26,1.01 269.66,6.66 335.25,-12.91 364.09,-21.52 392.35,-41.15 411.83,-56.95"/>
<polygon fill="#63b8ff" stroke="#63b8ff" points="409.57,-59.62 419.48,-63.36 414.06,-54.26 409.57,-59.62"/>
</a>
</g>
</g>
<!-- Node12 -->
<g id="Node000012" class="node">
<title>Node12</title>
<g id="a_Node000012"><a xlink:href="../../d0/d08/realtime__stats_8cpp.html#aa54c915581fcc495489175a4386d59fd" target="_top" xlink:title=" ">
<polygon fill="white" stroke="#666666" points="145.25,-204.54 73,-204.54 73,-185.29 145.25,-185.29 145.25,-204.54"/>
<text text-anchor="middle" x="109.12" y="-191.04" font-family="Helvetica,sans-Serif" font-size="10.00">test_function</text>
</a>
</g>
</g>
<!-- Node1&#45;&gt;Node12 -->
<g id="edge12_Node000001_Node000012" class="edge">
<title>Node1&#45;&gt;Node12</title>
<g id="a_edge12_Node000001_Node000012"><a xlink:title=" ">
<path fill="none" stroke="#63b8ff" d="M37.43,-211.66C44.47,-210 52.9,-208 61.44,-205.98"/>
<polygon fill="#63b8ff" stroke="#63b8ff" points="62.24,-209.38 71.16,-203.67 60.63,-202.57 62.24,-209.38"/>
</a>
</g>
</g>
<!-- Node8 -->
<g id="Node000008" class="node">
<title>Node8</title>
<g id="a_Node000008"><a target="_blank" xlink:href="http://en.cppreference.com/w/cpp/numeric/math/sqrt.html#" xlink:title=" ">
<polygon fill="white" stroke="#666666" points="464.5,-146.54 412.5,-146.54 412.5,-127.29 464.5,-127.29 464.5,-146.54"/>
<text text-anchor="middle" x="438.5" y="-133.04" font-family="Helvetica,sans-Serif" font-size="10.00">std::sqrt</text>
</a>
</g>
</g>
<!-- Node7&#45;&gt;Node8 -->
<g id="edge7_Node000007_Node000008" class="edge">
<title>Node7&#45;&gt;Node8</title>
<g id="a_edge7_Node000007_Node000008"><a xlink:title=" ">
<path fill="none" stroke="#63b8ff" d="M335.62,-147.77C358.21,-145.37 381.91,-142.84 400.76,-140.83"/>
<polygon fill="#63b8ff" stroke="#63b8ff" points="401.03,-144.32 410.6,-139.78 400.28,-137.36 401.03,-144.32"/>
</a>
</g>
</g>
<!-- Node7&#45;&gt;Node9 -->
<g id="edge8_Node000007_Node000009" class="edge">
<title>Node7&#45;&gt;Node9</title>
<g id="a_edge8_Node000007_Node000009"><a xlink:title=" ">
<path fill="none" stroke="#63b8ff" d="M306.55,-166C322.86,-169.48 341.6,-173.47 359.69,-177.33"/>
<polygon fill="#63b8ff" stroke="#63b8ff" points="358.86,-180.73 369.37,-179.39 360.32,-173.88 358.86,-180.73"/>
</a>
</g>
</g>
<!-- Node10&#45;&gt;Node8 -->
<g id="edge10_Node000010_Node000008" class="edge">
<title>Node10&#45;&gt;Node8</title>
<g id="a_edge10_Node000010_Node000008"><a xlink:title=" ">
<path fill="none" stroke="#63b8ff" d="M290.71,-89.97C321.64,-99.86 368.82,-114.95 401.3,-125.34"/>
<polygon fill="#63b8ff" stroke="#63b8ff" points="400.09,-128.62 410.68,-128.34 402.22,-121.96 400.09,-128.62"/>
</a>
</g>
</g>
<!-- Node10&#45;&gt;Node11 -->
<g id="edge11_Node000010_Node000011" class="edge">
<title>Node10&#45;&gt;Node11</title>
<g id="a_edge11_Node000010_Node000011"><a xlink:title=" ">
<path fill="none" stroke="#63b8ff" d="M335.62,-79.91C343.49,-79.91 351.5,-79.91 359.39,-79.91"/>
<polygon fill="#63b8ff" stroke="#63b8ff" points="359.33,-83.41 369.33,-79.91 359.33,-76.41 359.33,-83.41"/>
</a>
</g>
</g>
<!-- Node12&#45;&gt;Node2 -->
<g id="edge13_Node000012_Node000002" class="edge">
<title>Node12&#45;&gt;Node2</title>
<g id="a_edge13_Node000012_Node000002"><a xlink:title=" ">
<path fill="none" stroke="#63b8ff" d="M111.37,-204.81C115.53,-233.41 131.54,-316.76 181.25,-358.91 191.92,-367.96 206.29,-372.81 219.66,-375.36"/>
<polygon fill="#63b8ff" stroke="#63b8ff" points="219.12,-378.82 229.53,-376.85 220.16,-371.9 219.12,-378.82"/>
</a>
</g>
</g>
<!-- Node12&#45;&gt;Node3 -->
<g id="edge14_Node000012_Node000003" class="edge">
<title>Node12&#45;&gt;Node3</title>
<g id="a_edge14_Node000012_Node000003"><a xlink:title=" ">
<path fill="none" stroke="#63b8ff" d="M113.55,-204.84C121.7,-227.01 144.37,-280.86 181.25,-309.91 182.97,-311.27 184.76,-312.55 186.62,-313.76"/>
<polygon fill="#63b8ff" stroke="#63b8ff" points="184.58,-316.63 195.01,-318.53 188.04,-310.55 184.58,-316.63"/>
</a>
</g>
</g>
<!-- Node12&#45;&gt;Node4 -->
<g id="edge15_Node000012_Node000004" class="edge">
<title>Node12&#45;&gt;Node4</title>
<g id="a_edge15_Node000012_Node000004"><a xlink:title=" ">
<path fill="none" stroke="#63b8ff" d="M118.3,-204.84C130.58,-219.14 155.13,-245.51 181.25,-260.91 184.05,-262.57 186.98,-264.13 189.99,-265.6"/>
<polygon fill="#63b8ff" stroke="#63b8ff" points="188.49,-268.77 199.05,-269.64 191.34,-262.37 188.49,-268.77"/>
</a>
</g>
</g>
<!-- Node12&#45;&gt;Node5 -->
<g id="edge16_Node000012_Node000005" class="edge">
<title>Node12&#45;&gt;Node5</title>
<g id="a_edge16_Node000012_Node000005"><a xlink:title=" ">
<path fill="none" stroke="#63b8ff" d="M145.37,-204.97C159.18,-208.92 175.5,-213.58 191.33,-218.1"/>
<polygon fill="#63b8ff" stroke="#63b8ff" points="190.15,-221.4 200.73,-220.78 192.07,-214.67 190.15,-221.4"/>
</a>
</g>
</g>
<!-- Node12&#45;&gt;Node6 -->
<g id="edge17_Node000012_Node000006" class="edge">
<title>Node12&#45;&gt;Node6</title>
<g id="a_edge17_Node000012_Node000006"><a xlink:title=" ">
<path fill="none" stroke="#63b8ff" d="M112.63,-184.83C119.31,-159.97 139.96,-95.29 181.25,-60.91 182.21,-60.12 183.19,-59.35 184.2,-58.6"/>
<polygon fill="#63b8ff" stroke="#63b8ff" points="185.93,-61.65 192.54,-53.37 182.21,-55.72 185.93,-61.65"/>
</a>
</g>
</g>
<!-- Node12&#45;&gt;Node7 -->
<g id="edge18_Node000012_Node000007" class="edge">
<title>Node12&#45;&gt;Node7</title>
<g id="a_edge18_Node000012_Node000007"><a xlink:title=" ">
<path fill="none" stroke="#63b8ff" d="M145.74,-185.47C164.47,-180.51 187.71,-174.35 208.13,-168.93"/>
<polygon fill="#63b8ff" stroke="#63b8ff" points="208.9,-172.35 217.67,-166.41 207.11,-165.59 208.9,-172.35"/>
</a>
</g>
</g>
<!-- Node12&#45;&gt;Node9 -->
<g id="edge20_Node000012_Node000009" class="edge">
<title>Node12&#45;&gt;Node9</title>
<g id="a_edge20_Node000012_Node000009"><a xlink:title=" ">
<path fill="none" stroke="#63b8ff" d="M145.47,-194.81C196.34,-194.65 291.54,-194.36 359.42,-194.15"/>
<polygon fill="#63b8ff" stroke="#63b8ff" points="359.4,-197.65 369.39,-194.12 359.38,-190.65 359.4,-197.65"/>
</a>
</g>
</g>
<!-- Node12&#45;&gt;Node10 -->
<g id="edge19_Node000012_Node000010" class="edge">
<title>Node12&#45;&gt;Node10</title>
<g id="a_edge19_Node000012_Node000010"><a xlink:title=" ">
<path fill="none" stroke="#63b8ff" d="M115.31,-184.81C125.43,-166.08 149.62,-125.86 181.25,-103.91 186.92,-99.98 193.26,-96.67 199.81,-93.88"/>
<polygon fill="#63b8ff" stroke="#63b8ff" points="200.67,-97.3 208.77,-90.47 198.18,-90.76 200.67,-97.3"/>
</a>
</g>
</g>
<!-- Node12&#45;&gt;Node11 -->
<g id="edge21_Node000012_Node000011" class="edge">
<title>Node12&#45;&gt;Node11</title>
<g id="a_edge21_Node000012_Node000011"><a xlink:title=" ">
<path fill="none" stroke="#63b8ff" d="M119.23,-185.05C131.86,-171.97 156.02,-149.15 181.25,-136.91 197.4,-129.08 290.75,-109.3 360.15,-95.24"/>
<polygon fill="#63b8ff" stroke="#63b8ff" points="360.47,-98.74 369.58,-93.33 359.09,-91.88 360.47,-98.74"/>
</a>
</g>
</g>
</g>
</svg>
