<?xml version="1.0" encoding="UTF-8" standalone="no"?>
<!DOCTYPE svg PUBLIC "-//W3C//DTD SVG 1.1//EN"
 "http://www.w3.org/Graphics/SVG/1.1/DTD/svg11.dtd">
<!-- Generated by graphviz version 11.0.0 (20240428.1522)
 -->
<!-- Title: main Pages: 1 -->
<!--zoomable 309 -->

<svg id="main" version="1.1" xmlns="http://www.w3.org/2000/svg" xmlns:xlink="http://www.w3.org/1999/xlink" xml:space="preserve" onload="init(evt)">
<style type="text/css"><![CDATA[
.node, .edge {opacity: 0.7;}
.node.selected, .edge.selected {opacity: 1;}
.edge:hover path { stroke: red; }
.edge:hover polygon { stroke: red; fill: red; }
]]></style>

<defs>
  <circle id="rim" cx="0" cy="0" r="7"/>
  <circle id="rim2" cx="0" cy="0" r="3.5"/>
  <g id="zoomPlus">
    <use xlink:href="#rim" fill="#404040"><set attributeName="fill" to="#808080" begin="zoomplus.mouseover" end="zoomplus.mouseout"/></use>
    <path d="M-4,0h8M0,-4v8" fill="none" stroke="white" stroke-width="1.5" pointer-events="none"/>
  </g>
  <g id="zoomMin">
    <use xlink:href="#rim" fill="#404040"><set attributeName="fill" to="#808080" begin="zoomminus.mouseover" end="zoomminus.mouseout"/></use>
    <path d="M-4,0h8" fill="none" stroke="white" stroke-width="1.5" pointer-events="none"/>
  </g>
  <g id="arrowUp" transform="translate(30 24)">
    <use xlink:href="#rim"/>
    <path pointer-events="none" fill="none" stroke="white" stroke-width="1.5" d="M0,-3.0v7 M-2.5,-0.5L0,-3.0L2.5,-0.5"/>
  </g>
  <g id="arrowRight" transform="rotate(90) translate(36 -43)">
    <use xlink:href="#rim"/>
    <path pointer-events="none" fill="none" stroke="white" stroke-width="1.5" d="M0,-3.0v7 M-2.5,-0.5L0,-3.0L2.5,-0.5"/>
  </g>
  <g id="arrowDown" transform="rotate(180) translate(-30 -48)">
    <use xlink:href="#rim"/>
    <path pointer-events="none" fill="none" stroke="white" stroke-width="1.5" d="M0,-3.0v7 M-2.5,-0.5L0,-3.0L2.5,-0.5"/>
  </g>
  <g id="arrowLeft" transform="rotate(270) translate(-36 17)">
    <use xlink:href="#rim"/>
    <path pointer-events="none" fill="none" stroke="white" stroke-width="1.5" d="M0,-3.0v7 M-2.5,-0.5L0,-3.0L2.5,-0.5"/>
  </g>
  <g id="resetDef">
    <use xlink:href="#rim2" fill="#404040"><set attributeName="fill" to="#808080" begin="reset.mouseover" end="reset.mouseout"/></use>
  </g>
</defs>
<script type="application/ecmascript">
var viewWidth = 691;
var viewHeight = 309;
var sectionId = 'dynsection-1';
</script>
<script type="application/ecmascript" xlink:href="../../svg.min.js"/>
<svg id="graph" class="graph">
<g id="viewport">
<title>main</title>
<!-- Node1 -->
<g id="Node000001" class="node">
<title>Node1</title>
<g id="a_Node000001"><a xlink:title=" ">
<polygon fill="#999999" stroke="#666666" points="37,-181.86 0,-181.86 0,-162.61 37,-162.61 37,-181.86"/>
<text text-anchor="middle" x="18.5" y="-168.36" font-family="Helvetica,sans-Serif" font-size="10.00">main</text>
</a>
</g>
</g>
<!-- Node2 -->
<g id="Node000002" class="node">
<title>Node2</title>
<g id="a_Node000002"><a xlink:href="../../d8/d89/namespacelinear__probing.html#a16680b8a37d442c2f208faa286e33908" target="_top" xlink:title=" ">
<polygon fill="white" stroke="#666666" points="196.62,-163.86 82.38,-163.86 82.38,-144.61 196.62,-144.61 196.62,-163.86"/>
<text text-anchor="middle" x="139.5" y="-150.36" font-family="Helvetica,sans-Serif" font-size="10.00">linear_probing::addInfo</text>
</a>
</g>
</g>
<!-- Node1&#45;&gt;Node2 -->
<g id="edge1_Node000001_Node000002" class="edge">
<title>Node1&#45;&gt;Node2</title>
<g id="a_edge1_Node000001_Node000002"><a xlink:title=" ">
<path fill="none" stroke="#63b8ff" d="M37.32,-169.54C46.59,-168.14 58.59,-166.33 71.06,-164.44"/>
<polygon fill="#63b8ff" stroke="#63b8ff" points="71.22,-167.96 80.58,-163 70.17,-161.03 71.22,-167.96"/>
</a>
</g>
</g>
<!-- Node4 -->
<g id="Node000004" class="node">
<title>Node4</title>
<g id="a_Node000004"><a xlink:href="../../d8/d89/namespacelinear__probing.html#a6322209aaa91b7bbf16f96e1cc52b746" target="_top" xlink:title=" ">
<polygon fill="white" stroke="#666666" points="523,-86.86 392.25,-86.86 392.25,-67.61 523,-67.61 523,-86.86"/>
<text text-anchor="middle" x="457.62" y="-73.36" font-family="Helvetica,sans-Serif" font-size="10.00">linear_probing::linearProbe</text>
</a>
</g>
</g>
<!-- Node1&#45;&gt;Node4 -->
<g id="edge18_Node000001_Node000004" class="edge">
<title>Node1&#45;&gt;Node4</title>
<g id="a_edge18_Node000001_Node000004"><a xlink:title=" ">
<path fill="none" stroke="#63b8ff" d="M30.51,-162.35C40.76,-153.74 56.83,-141.65 73,-135.24 174.45,-95 301.16,-82.47 380.51,-78.68"/>
<polygon fill="#63b8ff" stroke="#63b8ff" points="380.52,-82.19 390.36,-78.25 380.21,-75.19 380.52,-82.19"/>
</a>
</g>
</g>
<!-- Node5 -->
<g id="Node000005" class="node">
<title>Node5</title>
<g id="a_Node000005"><a target="_blank" xlink:href="http://en.cppreference.com/w/cpp/io/manip/endl.html#" xlink:title=" ">
<polygon fill="white" stroke="#666666" points="647.75,-200.86 594.25,-200.86 594.25,-181.61 647.75,-181.61 647.75,-200.86"/>
<text text-anchor="middle" x="621" y="-187.36" font-family="Helvetica,sans-Serif" font-size="10.00">std::endl</text>
</a>
</g>
</g>
<!-- Node1&#45;&gt;Node5 -->
<g id="edge16_Node000001_Node000005" class="edge">
<title>Node1&#45;&gt;Node5</title>
<g id="a_edge16_Node000001_Node000005"><a xlink:title=" ">
<path fill="none" stroke="#63b8ff" d="M24.16,-182.35C31.95,-198.11 49.15,-228.35 73,-244.24 137.41,-287.15 165.18,-276.84 242,-286.24 366.25,-301.45 407.18,-314.72 523,-267.24 554.98,-254.13 585.23,-227.3 603.19,-209.28"/>
<polygon fill="#63b8ff" stroke="#63b8ff" points="605.48,-211.95 609.93,-202.34 600.46,-207.08 605.48,-211.95"/>
</a>
</g>
</g>
<!-- Node6 -->
<g id="Node000006" class="node">
<title>Node6</title>
<g id="a_Node000006"><a xlink:href="../../d8/d89/namespacelinear__probing.html#a4bde7a47f98dd1ad24c84038e2608527" target="_top" xlink:title="Hash a key. Uses the STL library&#39;s std::hash() function.">
<polygon fill="white" stroke="#666666" points="680.75,-19.86 561.25,-19.86 561.25,-0.61 680.75,-0.61 680.75,-19.86"/>
<text text-anchor="middle" x="621" y="-6.36" font-family="Helvetica,sans-Serif" font-size="10.00">linear_probing::hashFxn</text>
</a>
</g>
</g>
<!-- Node1&#45;&gt;Node6 -->
<g id="edge17_Node000001_Node000006" class="edge">
<title>Node1&#45;&gt;Node6</title>
<g id="a_edge17_Node000001_Node000006"><a xlink:title=" ">
<path fill="none" stroke="#63b8ff" d="M23.9,-162.14C31.57,-145.66 48.88,-112.98 73,-94.24 189.5,-3.71 245.38,-17.28 392.25,-3.24 444.78,1.78 504.4,-0.33 549.46,-3.5"/>
<polygon fill="#63b8ff" stroke="#63b8ff" points="549.14,-6.99 559.37,-4.24 549.66,-0.01 549.14,-6.99"/>
</a>
</g>
</g>
<!-- Node10 -->
<g id="Node000010" class="node">
<title>Node10</title>
<g id="a_Node000010"><a xlink:href="../../d8/d89/namespacelinear__probing.html#ad87b71d810901fab69c4ad9d4d0fa635" target="_top" xlink:title=" ">
<polygon fill="white" stroke="#666666" points="355.5,-276.86 242.75,-276.86 242.75,-257.61 355.5,-257.61 355.5,-276.86"/>
<text text-anchor="middle" x="299.12" y="-263.36" font-family="Helvetica,sans-Serif" font-size="10.00">linear_probing::display</text>
</a>
</g>
</g>
<!-- Node1&#45;&gt;Node10 -->
<g id="edge15_Node000001_Node000010" class="edge">
<title>Node1&#45;&gt;Node10</title>
<g id="a_edge15_Node000001_Node000010"><a xlink:title=" ">
<path fill="none" stroke="#63b8ff" d="M31.03,-182.36C41.37,-190.94 57.28,-202.98 73,-210.24 123.72,-233.67 185.49,-248.44 231.49,-257.05"/>
<polygon fill="#63b8ff" stroke="#63b8ff" points="230.58,-260.44 241.05,-258.79 231.83,-253.56 230.58,-260.44"/>
</a>
</g>
</g>
<!-- Node11 -->
<g id="Node000011" class="node">
<title>Node11</title>
<g id="a_Node000011"><a xlink:href="../../d8/d89/namespacelinear__probing.html#a75854f5aa216e61219154c62167ce8f0" target="_top" xlink:title=" ">
<polygon fill="white" stroke="#666666" points="206,-200.86 73,-200.86 73,-181.61 206,-181.61 206,-200.86"/>
<text text-anchor="middle" x="139.5" y="-187.36" font-family="Helvetica,sans-Serif" font-size="10.00">linear_probing::removalInfo</text>
</a>
</g>
</g>
<!-- Node1&#45;&gt;Node11 -->
<g id="edge19_Node000001_Node000011" class="edge">
<title>Node1&#45;&gt;Node11</title>
<g id="a_edge19_Node000001_Node000011"><a xlink:title=" ">
<path fill="none" stroke="#63b8ff" d="M37.32,-175.08C44.81,-176.28 54.07,-177.76 63.92,-179.33"/>
<polygon fill="#63b8ff" stroke="#63b8ff" points="63.31,-182.78 73.74,-180.9 64.41,-175.87 63.31,-182.78"/>
</a>
</g>
</g>
<!-- Node3 -->
<g id="Node000003" class="node">
<title>Node3</title>
<g id="a_Node000003"><a xlink:href="../../d8/d89/namespacelinear__probing.html#a16d34fd3511626a83ab00665d7bc34d1" target="_top" xlink:title=" ">
<polygon fill="white" stroke="#666666" points="348,-163.86 250.25,-163.86 250.25,-144.61 348,-144.61 348,-163.86"/>
<text text-anchor="middle" x="299.12" y="-150.36" font-family="Helvetica,sans-Serif" font-size="10.00">linear_probing::add</text>
</a>
</g>
</g>
<!-- Node2&#45;&gt;Node3 -->
<g id="edge2_Node000002_Node000003" class="edge">
<title>Node2&#45;&gt;Node3</title>
<g id="a_edge2_Node000002_Node000003"><a xlink:title=" ">
<path fill="none" stroke="#63b8ff" d="M196.96,-154.24C210.49,-154.24 224.97,-154.24 238.63,-154.24"/>
<polygon fill="#63b8ff" stroke="#63b8ff" points="238.36,-157.74 248.36,-154.24 238.36,-150.74 238.36,-157.74"/>
</a>
</g>
</g>
<!-- Node2&#45;&gt;Node5 -->
<g id="edge13_Node000002_Node000005" class="edge">
<title>Node2&#45;&gt;Node5</title>
<g id="a_edge13_Node000002_Node000005"><a xlink:title=" ">
<path fill="none" stroke="#63b8ff" d="M180.19,-144.13C250.64,-127.94 401.57,-101.2 523,-134.24 551.44,-141.98 580.05,-160.39 598.75,-174.21"/>
<polygon fill="#63b8ff" stroke="#63b8ff" points="596.54,-176.93 606.61,-180.21 600.79,-171.36 596.54,-176.93"/>
</a>
</g>
</g>
<!-- Node2&#45;&gt;Node6 -->
<g id="edge14_Node000002_Node000006" class="edge">
<title>Node2&#45;&gt;Node6</title>
<g id="a_edge14_Node000002_Node000006"><a xlink:title=" ">
<path fill="none" stroke="#63b8ff" d="M154.67,-144.3C191.65,-118.97 294.97,-52.12 392.25,-25.24 443.66,-11.03 503.96,-7.62 549.6,-7.57"/>
<polygon fill="#63b8ff" stroke="#63b8ff" points="549.34,-11.07 559.36,-7.62 549.38,-4.07 549.34,-11.07"/>
</a>
</g>
</g>
<!-- Node2&#45;&gt;Node10 -->
<g id="edge11_Node000002_Node000010" class="edge">
<title>Node2&#45;&gt;Node10</title>
<g id="a_edge11_Node000002_Node000010"><a xlink:title=" ">
<path fill="none" stroke="#63b8ff" d="M188.97,-164.3C194.92,-166.47 200.74,-169.08 206,-172.24 225.95,-184.21 225.84,-193.51 242,-210.24 254.64,-223.32 269.04,-237.94 280.09,-249.1"/>
<polygon fill="#63b8ff" stroke="#63b8ff" points="277.54,-251.5 287.06,-256.13 282.51,-246.57 277.54,-251.5"/>
</a>
</g>
</g>
<!-- Node3&#45;&gt;Node4 -->
<g id="edge3_Node000003_Node000004" class="edge">
<title>Node3&#45;&gt;Node4</title>
<g id="a_edge3_Node000003_Node000004"><a xlink:title=" ">
<path fill="none" stroke="#63b8ff" d="M324.91,-144.16C334.75,-140.02 346.11,-135.07 356.25,-130.24 381.13,-118.38 408.78,-103.66 428.76,-92.74"/>
<polygon fill="#63b8ff" stroke="#63b8ff" points="430.31,-95.88 437.39,-87.99 426.94,-89.74 430.31,-95.88"/>
</a>
</g>
</g>
<!-- Node9 -->
<g id="Node000009" class="node">
<title>Node9</title>
<g id="a_Node000009"><a xlink:href="../../d8/d89/namespacelinear__probing.html#a6a082dc1426a79f866cee6b370df37b0" target="_top" xlink:title=" ">
<polygon fill="white" stroke="#666666" points="513.25,-162.86 402,-162.86 402,-143.61 513.25,-143.61 513.25,-162.86"/>
<text text-anchor="middle" x="457.62" y="-149.36" font-family="Helvetica,sans-Serif" font-size="10.00">linear_probing::rehash</text>
</a>
</g>
</g>
<!-- Node3&#45;&gt;Node9 -->
<g id="edge8_Node000003_Node000009" class="edge">
<title>Node3&#45;&gt;Node9</title>
<g id="a_edge8_Node000003_Node000009"><a xlink:title=" ">
<path fill="none" stroke="#63b8ff" d="M348.36,-147.64C361.68,-147.13 376.37,-146.9 390.52,-146.98"/>
<polygon fill="#63b8ff" stroke="#63b8ff" points="390.16,-150.48 400.2,-147.1 390.24,-143.48 390.16,-150.48"/>
</a>
</g>
</g>
<!-- Node4&#45;&gt;Node5 -->
<g id="edge4_Node000004_Node000005" class="edge">
<title>Node4&#45;&gt;Node5</title>
<g id="a_edge4_Node000004_Node000005"><a xlink:title=" ">
<path fill="none" stroke="#63b8ff" d="M493.2,-87.32C503.19,-90.97 513.86,-95.61 523,-101.24 531.79,-106.66 576.08,-148.86 601.67,-173.5"/>
<polygon fill="#63b8ff" stroke="#63b8ff" points="599.14,-175.92 608.76,-180.35 604,-170.89 599.14,-175.92"/>
</a>
</g>
</g>
<!-- Node4&#45;&gt;Node6 -->
<g id="edge5_Node000004_Node000006" class="edge">
<title>Node4&#45;&gt;Node6</title>
<g id="a_edge5_Node000004_Node000006"><a xlink:title=" ">
<path fill="none" stroke="#63b8ff" d="M486.65,-67.21C498,-63.04 511.18,-58.06 523,-53.24 544.82,-44.35 569.05,-33.61 587.83,-25.08"/>
<polygon fill="#63b8ff" stroke="#63b8ff" points="589.18,-28.32 596.83,-20.98 586.28,-21.95 589.18,-28.32"/>
</a>
</g>
</g>
<!-- Node7 -->
<g id="Node000007" class="node">
<title>Node7</title>
<g id="a_Node000007"><a xlink:href="../../d8/d89/namespacelinear__probing.html#a75d779938df7ebc68581d922b60a2541" target="_top" xlink:title=" ">
<polygon fill="white" stroke="#666666" points="683,-121.86 559,-121.86 559,-102.61 683,-102.61 683,-121.86"/>
<text text-anchor="middle" x="621" y="-108.36" font-family="Helvetica,sans-Serif" font-size="10.00">linear_probing::putProber</text>
</a>
</g>
</g>
<!-- Node4&#45;&gt;Node7 -->
<g id="edge6_Node000004_Node000007" class="edge">
<title>Node4&#45;&gt;Node7</title>
<g id="a_edge6_Node000004_Node000007"><a xlink:title=" ">
<path fill="none" stroke="#63b8ff" d="M505.3,-87.36C523.11,-91.23 543.64,-95.68 562.35,-99.74"/>
<polygon fill="#63b8ff" stroke="#63b8ff" points="561.43,-103.12 571.95,-101.82 562.92,-96.28 561.43,-103.12"/>
</a>
</g>
</g>
<!-- Node8 -->
<g id="Node000008" class="node">
<title>Node8</title>
<g id="a_Node000008"><a xlink:href="../../d8/d89/namespacelinear__probing.html#a942fc8407b8001890ea26830cdcd9d77" target="_top" xlink:title=" ">
<polygon fill="white" stroke="#666666" points="683,-84.49 559,-84.49 559,-53.99 683,-53.99 683,-84.49"/>
<text text-anchor="start" x="567" y="-70.99" font-family="Helvetica,sans-Serif" font-size="10.00">linear_probing::searching</text>
<text text-anchor="middle" x="621" y="-59.74" font-family="Helvetica,sans-Serif" font-size="10.00">Prober</text>
</a>
</g>
</g>
<!-- Node4&#45;&gt;Node8 -->
<g id="edge7_Node000004_Node000008" class="edge">
<title>Node4&#45;&gt;Node8</title>
<g id="a_edge7_Node000004_Node000008"><a xlink:title=" ">
<path fill="none" stroke="#63b8ff" d="M523.33,-74.03C531.26,-73.64 539.4,-73.23 547.43,-72.84"/>
<polygon fill="#63b8ff" stroke="#63b8ff" points="547.36,-76.34 557.17,-72.35 547.01,-69.35 547.36,-76.34"/>
</a>
</g>
</g>
<!-- Node9&#45;&gt;Node3 -->
<g id="edge9_Node000009_Node000003" class="edge">
<title>Node9&#45;&gt;Node3</title>
<g id="a_edge9_Node000009_Node000003"><a xlink:title=" ">
<path fill="none" stroke="#63b8ff" d="M401.71,-160.07C388.13,-160.48 373.51,-160.61 359.71,-160.43"/>
<polygon fill="#63b8ff" stroke="#63b8ff" points="359.94,-156.94 349.87,-160.25 359.8,-163.94 359.94,-156.94"/>
</a>
</g>
</g>
<!-- Node9&#45;&gt;Node5 -->
<g id="edge10_Node000009_Node000005" class="edge">
<title>Node9&#45;&gt;Node5</title>
<g id="a_edge10_Node000009_Node000005"><a xlink:title=" ">
<path fill="none" stroke="#63b8ff" d="M501.45,-163.32C526.92,-169.32 558.9,-176.85 583.23,-182.58"/>
<polygon fill="#63b8ff" stroke="#63b8ff" points="582.14,-185.92 592.68,-184.81 583.75,-179.11 582.14,-185.92"/>
</a>
</g>
</g>
<!-- Node10&#45;&gt;Node5 -->
<g id="edge12_Node000010_Node000005" class="edge">
<title>Node10&#45;&gt;Node5</title>
<g id="a_edge12_Node000010_Node000005"><a xlink:title=" ">
<path fill="none" stroke="#63b8ff" d="M355.81,-267.12C401.63,-265.64 467.78,-260.3 523,-243.24 549.49,-235.05 577.12,-219.44 596.08,-207.45"/>
<polygon fill="#63b8ff" stroke="#63b8ff" points="597.91,-210.43 604.4,-202.05 594.1,-204.56 597.91,-210.43"/>
</a>
</g>
</g>
<!-- Node11&#45;&gt;Node5 -->
<g id="edge21_Node000011_Node000005" class="edge">
<title>Node11&#45;&gt;Node5</title>
<g id="a_edge21_Node000011_Node000005"><a xlink:title=" ">
<path fill="none" stroke="#63b8ff" d="M184.72,-201.36C202.42,-204.92 223.08,-208.48 242,-210.24 366.37,-221.78 398.56,-216.05 523,-205.24 542.88,-203.51 564.91,-200.43 582.94,-197.59"/>
<polygon fill="#63b8ff" stroke="#63b8ff" points="583.35,-201.07 592.66,-196.02 582.23,-194.16 583.35,-201.07"/>
</a>
</g>
</g>
<!-- Node11&#45;&gt;Node6 -->
<g id="edge22_Node000011_Node000006" class="edge">
<title>Node11&#45;&gt;Node6</title>
<g id="a_edge22_Node000011_Node000006"><a xlink:title=" ">
<path fill="none" stroke="#63b8ff" d="M188.97,-181.17C194.92,-179.01 200.74,-176.39 206,-173.24 225.95,-161.27 223.35,-149.15 242,-135.24 287.64,-101.18 305.68,-103.42 356.25,-77.24 372.32,-68.92 375.23,-64.39 392.25,-58.24 421.09,-47.82 495.8,-32.88 551.85,-22.44"/>
<polygon fill="#63b8ff" stroke="#63b8ff" points="552.46,-25.89 561.66,-20.63 551.19,-19.01 552.46,-25.89"/>
</a>
</g>
</g>
<!-- Node11&#45;&gt;Node10 -->
<g id="edge20_Node000011_Node000010" class="edge">
<title>Node11&#45;&gt;Node10</title>
<g id="a_edge20_Node000011_Node000010"><a xlink:title=" ">
<path fill="none" stroke="#63b8ff" d="M159.02,-201.21C179.22,-211.98 212.6,-229.44 242,-243.24 248.9,-246.48 256.35,-249.79 263.49,-252.88"/>
<polygon fill="#63b8ff" stroke="#63b8ff" points="261.69,-255.91 272.26,-256.61 264.43,-249.47 261.69,-255.91"/>
</a>
</g>
</g>
<!-- Node12 -->
<g id="Node000012" class="node">
<title>Node12</title>
<g id="a_Node000012"><a xlink:href="../../d8/d89/namespacelinear__probing.html#abcf8d033f8115f39f3c93cfb6cee0b28" target="_top" xlink:title=" ">
<polygon fill="white" stroke="#666666" points="356.25,-200.86 242,-200.86 242,-181.61 356.25,-181.61 356.25,-200.86"/>
<text text-anchor="middle" x="299.12" y="-187.36" font-family="Helvetica,sans-Serif" font-size="10.00">linear_probing::remove</text>
</a>
</g>
</g>
<!-- Node11&#45;&gt;Node12 -->
<g id="edge23_Node000011_Node000012" class="edge">
<title>Node11&#45;&gt;Node12</title>
<g id="a_edge23_Node000011_Node000012"><a xlink:title=" ">
<path fill="none" stroke="#63b8ff" d="M206.43,-191.24C214.37,-191.24 222.48,-191.24 230.44,-191.24"/>
<polygon fill="#63b8ff" stroke="#63b8ff" points="230.44,-194.74 240.44,-191.24 230.44,-187.74 230.44,-194.74"/>
</a>
</g>
</g>
<!-- Node12&#45;&gt;Node4 -->
<g id="edge25_Node000012_Node000004" class="edge">
<title>Node12&#45;&gt;Node4</title>
<g id="a_edge25_Node000012_Node000004"><a xlink:title=" ">
<path fill="none" stroke="#63b8ff" d="M340.23,-181.21C345.82,-179.01 351.33,-176.38 356.25,-173.24 376.14,-160.55 375.4,-150.75 392.25,-134.24 406.5,-120.29 423.4,-105.38 436.31,-94.3"/>
<polygon fill="#63b8ff" stroke="#63b8ff" points="438.41,-97.12 443.76,-87.97 433.88,-91.78 438.41,-97.12"/>
</a>
</g>
</g>
<!-- Node12&#45;&gt;Node5 -->
<g id="edge24_Node000012_Node000005" class="edge">
<title>Node12&#45;&gt;Node5</title>
<g id="a_edge24_Node000012_Node000005"><a xlink:title=" ">
<path fill="none" stroke="#63b8ff" d="M356.58,-191.24C421.58,-191.24 526.54,-191.24 582.33,-191.24"/>
<polygon fill="#63b8ff" stroke="#63b8ff" points="582.26,-194.74 592.26,-191.24 582.26,-187.74 582.26,-194.74"/>
</a>
</g>
</g>
</g>
</svg>

<g id="navigator" transform="translate(0 0)" fill="#404254">
  <rect fill="#f2f5e9" fill-opacity="0.5" stroke="#606060" stroke-width=".5" x="0" y="0" width="60" height="60"/>
  <use id="zoomplus" xlink:href="#zoomPlus" x="17" y="9" onmousedown="handleZoom(evt,'in')"/>
  <use id="zoomminus" xlink:href="#zoomMin" x="42" y="9" onmousedown="handleZoom(evt,'out')"/>
  <use id="reset" xlink:href="#resetDef" x="30" y="36" onmousedown="handleReset()"/>
   <use id="arrowup" xlink:href="#arrowUp" x="0" y="0" onmousedown="handlePan(0,-1)"/>
  <use id="arrowright" xlink:href="#arrowRight" x="0" y="0" onmousedown="handlePan(1,0)"/>
  <use id="arrowdown" xlink:href="#arrowDown" x="0" y="0" onmousedown="handlePan(0,1)"/>
  <use id="arrowleft" xlink:href="#arrowLeft" x="0" y="0" onmousedown="handlePan(-1,0)"/>
</g>
<svg viewBox="0 0 15 15" width="100%" height="30px" preserveAspectRatio="xMaxYMin meet">
 <g id="arrow_out" transform="scale(0.3 0.3)">
  <a xlink:href="linear__probing__hash__table_8cpp_ae66f6b31b5ad750f1fe042a706a4e3d4_cgraph_org.svg" target="_base">
   <rect id="button" ry="5" rx="5" y="6" x="6" height="38" width="38"
        fill="#f2f5e9" fill-opacity="0.5" stroke="#606060" stroke-width="1.0"/>
   <path id="arrow"
     d="M 11.500037,31.436501 C 11.940474,20.09759 22.043105,11.32322 32.158766,21.979434 L 37.068811,17.246167 C 37.068811,17.246167 37.088388,32 37.088388,32 L 22.160133,31.978069 C 22.160133,31.978069 26.997745,27.140456 26.997745,27.140456 C 18.528582,18.264221 13.291696,25.230495 11.500037,31.436501 z"
     style="fill:#404040;"/>
  </a>
 </g>
</svg>

<style type='text/css'>
<![CDATA[
[data-mouse-over-selected='false'] { opacity: 0.7; }
[data-mouse-over-selected='true']  { opacity: 1.0; }
]]>
</style>
<script type="application/ecmascript"><![CDATA[
document.addEventListener('DOMContentLoaded', (event) => {
  highlightEdges();
  highlightAdjacentNodes();
});
]]></script>
</svg>
